/* XPM */
static char * dont_draw_xpm[] = {
"33 25 137 2",
"  	c None",
". 	c #EF1313",
"+ 	c #000000",
"@ 	c #353345",
"# 	c #656164",
"$ 	c #B0AEBE",
"% 	c #878387",
"& 	c #F5F1F4",
"* 	c #2B272D",
"= 	c #A6A4B2",
"- 	c #282862",
"; 	c #A09EA0",
"> 	c #FFFFFF",
", 	c #070306",
"' 	c #FDF9FF",
") 	c #35334F",
"! 	c #222253",
"~ 	c #110D11",
"{ 	c #928D92",
"] 	c #C4C0C3",
"^ 	c #696568",
"/ 	c #110D14",
"( 	c #373445",
"_ 	c #46425B",
": 	c #07062A",
"< 	c #6B6B94",
"[ 	c #6E6A6E",
"} 	c #797578",
"| 	c #F4F0FC",
"1 	c #C4C1CF",
"2 	c #343243",
"3 	c #656177",
"4 	c #000005",
"5 	c #282640",
"6 	c #C2C0DF",
"7 	c #4F494F",
"8 	c #CBC4CB",
"9 	c #383338",
"0 	c #FBF6FB",
"a 	c #0E090E",
"b 	c #99939A",
"c 	c #E9E5ED",
"d 	c #EEEBF4",
"e 	c #FCF9FF",
"f 	c #A5A3B6",
"g 	c #9D9BB1",
"h 	c #6E676E",
"i 	c #312B31",
"j 	c #CFCACF",
"k 	c #B1ABB1",
"l 	c #736E73",
"m 	c #A9A3A9",
"n 	c #251F25",
"o 	c #FEF8FE",
"p 	c #A8A3A8",
"q 	c #CAC5CA",
"r 	c #002E00",
"s 	c #003800",
"t 	c #508E50",
"u 	c #003200",
"v 	c #DBFFDB",
"w 	c #D8FFD8",
"x 	c #E8FFE8",
"y 	c #F1FFF1",
"z 	c #CCFFCF",
"A 	c #ADFFAD",
"B 	c #81D081",
"C 	c #F5FFF5",
"D 	c #A9FFA9",
"E 	c #E0FFE0",
"F 	c #9FF69F",
"G 	c #7DD17D",
"H 	c #389238",
"I 	c #ACFFAC",
"J 	c #BFFFBF",
"K 	c #E9FFEC",
"L 	c #EDFFF9",
"M 	c #241F24",
"N 	c #B2ADB2",
"O 	c #241E24",
"P 	c #292329",
"Q 	c #CFC9CF",
"R 	c #E9E4E9",
"S 	c #AFABB4",
"T 	c #F0EEF9",
"U 	c #D3D1E3",
"V 	c #201920",
"W 	c #DED7DE",
"X 	c #8F8A8F",
"Y 	c #726D72",
"Z 	c #F8F3F8",
"` 	c #787480",
" .	c #0F0D1B",
"..	c #767489",
"+.	c #FCFDFF",
"@.	c #E4DFE4",
"#.	c #FDF8FD",
"$.	c #F3EEF3",
"%.	c #7B757B",
"&.	c #292529",
"*.	c #2E2A2D",
"=.	c #FBF7FB",
"-.	c #322C31",
";.	c #FCF9FC",
">.	c #FAF6F9",
",.	c #55535F",
"'.	c #000009",
").	c #75748E",
"!.	c #767788",
"~.	c #6C676C",
"{.	c #140F14",
"].	c #969296",
"^.	c #151015",
"/.	c #767176",
"(.	c #010001",
"_.	c #B4B1B4",
":.	c #C6C2C7",
"<.	c #EAE7EC",
"[.	c #9995A3",
"}.	c #545263",
"|.	c #000008",
"1.	c #000015",
"2.	c #7E797E",
"3.	c #151114",
"4.	c #DBD7DA",
"5.	c #312E31",
"6.	c #ECE8EB",
"7.	c #C1BDC3",
"8.	c #AEACB7",
"9.	c #6B6877",
"0.	c #8C888E",
"a.	c #B2B0BD",
"b.	c #171527",
"c.	c #201E22",
"d.	c #95939B",
"e.	c #DAD8E6",
"f.	c #01000D",
". + + + + + + + + + + + + + + + + + + + + + + + + + + + + + + + + ",
"+ . . + + + + + + + + + + + + + + + + + + + + + + + + + + + . . . ",
"+ + . . + + + + + + + + + + + + + + + + + + + + + @ + + + . . + + ",
"+ + + . . . + + + + + + + + + + + + + + # + + + + $ + + . . + + + ",
"+ + + + + . . + + % + + + + + + + + + + & + * + + = . . . + + + - ",
"+ + + + + + . . + ; + + + + + + + + + + > , ' + + . . + ) + + + ! ",
"+ + + + + + + . . . + ~ { + + + + + + ] > ^ > / . . ( + _ + + : < ",
"+ + + + + + + + + . . > > + + + [ + + > > } . . . | 1 2 3 4 5 6 > ",
"+ + 7 8 + + + + + > . . > 9 + + 0 a + > > . . b c d > e > f g > > ",
"+ + h > + + + i j > > . . . k > > + l > . . > m > > > > > > > > > ",
"+ + > > n + + o > > > > > . . > > p . . . > > q > > > > > > > > > ",
"r s > > t u v > > > > w > > . . > . . x y > > > > > z > > > > > > ",
"> A B C D E > > > > F G H I > . . . > > J > > > > > K > > > L > > ",
"> > M > > > > > > N O + P Q . . > . . R > > > > > > > > S T + U > ",
"> > V W > > > > > X + + + . . Y > > . . Z > > > > > > > `  .+ ..+.",
"> @.+ + #.> > $.#.%.+ + . . + &.*.=.> -.. . ;.>.> > > > ,.+ '.).!.",
"~.{.+ + ~.> ].+ ^./.. . + + + (.+ _.> &.+ . . :.<.> > [.}.|.+ + 1.",
"+ + + + + > 2.+ + . . + + + + + + 3.4.5.+ 6.. . 7.> 8.9.+ + + + + ",
"+ + + + + + + + . . + + + + + + + + + + + + + 0.. . a.b.+ + + + + ",
"+ + + + + + . . + + + + + + + + + + + + + + + c.d.. . + + + + + + ",
"+ + + + + . . + + + + + + + + + + + + + + + + + + e.. . + + + + + ",
"+ + + + . . + + + + + + + + + + + + + + + + + + + f.+ + . . + + + ",
"+ + . . + + + + + + + + + + + + + + + + + + + + + + + + + . . + + ",
"+ . . + + + + + + + + + + + + + + + + + + + + + + + + + + + . . + ",
". . + + + + + + + + + + + + + + + + + + + + + + + + + + + + + + + "};
