/* XPM */
static char * draw_xpm[] = {
"33 25 156 2",
"  	c None",
". 	c #000000",
"+ 	c #353345",
"@ 	c #656164",
"# 	c #B0AEBE",
"$ 	c #878387",
"% 	c #F5F1F4",
"& 	c #2B272D",
"* 	c #A6A4B2",
"= 	c #282862",
"- 	c #A09EA0",
"; 	c #FFFFFF",
"> 	c #070306",
", 	c #FDF9FF",
"' 	c #AFACB9",
") 	c #35334F",
"! 	c #222253",
"~ 	c #E5E1E5",
"{ 	c #110D11",
"] 	c #928D92",
"^ 	c #C4C0C3",
"/ 	c #696568",
"( 	c #110D14",
"_ 	c #403C46",
": 	c #FEFBFF",
"< 	c #373445",
"[ 	c #46425B",
"} 	c #07062A",
"| 	c #6B6B94",
"1 	c #E4DFE4",
"2 	c #6E6A6E",
"3 	c #797578",
"4 	c #878389",
"5 	c #BAB7BE",
"6 	c #F4F0FC",
"7 	c #C4C1CF",
"8 	c #343243",
"9 	c #656177",
"0 	c #000005",
"a 	c #282640",
"b 	c #C2C0DF",
"c 	c #4F494F",
"d 	c #CBC4CB",
"e 	c #383338",
"f 	c #FBF6FB",
"g 	c #0E090E",
"h 	c #807B80",
"i 	c #99939A",
"j 	c #E9E5ED",
"k 	c #EEEBF4",
"l 	c #FCF9FF",
"m 	c #A5A3B6",
"n 	c #9D9BB1",
"o 	c #6E676E",
"p 	c #312B31",
"q 	c #CFCACF",
"r 	c #B1ABB1",
"s 	c #736E73",
"t 	c #A9A3A9",
"u 	c #251F25",
"v 	c #FEF8FE",
"w 	c #A8A3A8",
"x 	c #ABA6AB",
"y 	c #CAC5CA",
"z 	c #002E00",
"A 	c #003800",
"B 	c #508E50",
"C 	c #003200",
"D 	c #DBFFDB",
"E 	c #D8FFD8",
"F 	c #E8FFE8",
"G 	c #F1FFF1",
"H 	c #CCFFCF",
"I 	c #ADFFAD",
"J 	c #81D081",
"K 	c #F5FFF5",
"L 	c #A9FFA9",
"M 	c #E0FFE0",
"N 	c #9FF69F",
"O 	c #7DD17D",
"P 	c #389238",
"Q 	c #ACFFAC",
"R 	c #BFFFBF",
"S 	c #E9FFEC",
"T 	c #EDFFF9",
"U 	c #241F24",
"V 	c #B2ADB2",
"W 	c #241E24",
"X 	c #292329",
"Y 	c #CFC9CF",
"Z 	c #E9E4E9",
"` 	c #AFABB4",
" .	c #F0EEF9",
"..	c #D3D1E3",
"+.	c #201920",
"@.	c #DED7DE",
"#.	c #8F8A8F",
"$.	c #282228",
"%.	c #6B676B",
"&.	c #726D72",
"*.	c #C5C0C5",
"=.	c #F8F3F8",
"-.	c #787480",
";.	c #0F0D1B",
">.	c #767489",
",.	c #FCFDFF",
"'.	c #FDF8FD",
").	c #F3EEF3",
"!.	c #7B757B",
"~.	c #292529",
"{.	c #2E2A2D",
"].	c #FBF7FB",
"^.	c #322C31",
"/.	c #959194",
"(.	c #F9F5F9",
"_.	c #FCF9FC",
":.	c #FAF6F9",
"<.	c #55535F",
"[.	c #000009",
"}.	c #75748E",
"|.	c #767788",
"1.	c #6C676C",
"2.	c #140F14",
"3.	c #969296",
"4.	c #151015",
"5.	c #767176",
"6.	c #010001",
"7.	c #B4B1B4",
"8.	c #565356",
"9.	c #C6C2C7",
"0.	c #EAE7EC",
"a.	c #9995A3",
"b.	c #545263",
"c.	c #000008",
"d.	c #000015",
"e.	c #7E797E",
"f.	c #393539",
"g.	c #151114",
"h.	c #DBD7DA",
"i.	c #312E31",
"j.	c #ECE8EB",
"k.	c #848186",
"l.	c #C1BDC3",
"m.	c #AEACB7",
"n.	c #6B6877",
"o.	c #8C888E",
"p.	c #AEABB3",
"q.	c #E8E4EE",
"r.	c #B2B0BD",
"s.	c #171527",
"t.	c #201E22",
"u.	c #95939B",
"v.	c #C7C6D1",
"w.	c #343242",
"x.	c #DAD8E6",
"y.	c #01000D",
". . . . . . . . . . . . . . . . . . . . . . . . . . . . . . . . . ",
". . . . . . . . . . . . . . . . . . . . . . . . . . . . . . . . . ",
". . . . . . . . . . . . . . . . . . . . . . . . . + . . . . . . . ",
". . . . . . . . . . . . . . . . . . . . @ . . . . # . . . . . . . ",
". . . . . . . . . $ . . . . . . . . . . % . & . . * . . . . . . = ",
". . . . . . . . . - . . . . . . . . . . ; > , . . ' . . ) . . . ! ",
". . . . . . . . . ~ . { ] . . . . . . ^ ; / ; ( _ : < . [ . . } | ",
". . . . . . . . . 1 . ; ; . . . 2 . . ; ; 3 ; 4 5 6 7 8 9 0 a b ; ",
". . c d . . . . . ; ; ; ; e . . f g . ; ; h ; i j k ; l ; m n ; ; ",
". . o ; . . . p q ; ; ; ; ; r ; ; . s ; ; ; ; t ; ; ; ; ; ; ; ; ; ",
". . ; ; u . . v ; ; ; ; ; ; ; ; ; w x ; ; ; ; y ; ; ; ; ; ; ; ; ; ",
"z A ; ; B C D ; ; ; ; E ; ; ; ; ; ; ; F G ; ; ; ; ; H ; ; ; ; ; ; ",
"; I J K L M ; ; ; ; N O P Q ; ; ; ; ; ; R ; ; ; ; ; S ; ; ; T ; ; ",
"; ; U ; ; ; ; ; ; V W . X Y ; ; ; ; ; Z ; ; ; ; ; ; ; ; `  .. ..; ",
"; ; +.@.; ; ; ; ; #.. . . $.%.&.; ; ; *.=.; ; ; ; ; ; ; -.;.. >.,.",
"; 1 . . '.; ; ).'.!.. . . . . ~.{.].; ^./.(._.:.; ; ; ; <.. [.}.|.",
"1.2.. . 1.; 3.. 4.5.. . . . . 6.. 7.; ~.. ; 8.9.0.; ; a.b.c.. . d.",
". . . . . ; e.. . f.. . . . . . . g.h.i.. j.. k.l.; m.n.. . . . . ",
". . . . . . . . . . . . . . . . . . . . . . . o.p.q.r.s.. . . . . ",
". . . . . . . . . . . . . . . . . . . . . . . t.u.v.w.. . . . . . ",
". . . . . . . . . . . . . . . . . . . . . . . . . x.. . . . . . . ",
". . . . . . . . . . . . . . . . . . . . . . . . . y.. . . . . . . ",
". . . . . . . . . . . . . . . . . . . . . . . . . . . . . . . . . ",
". . . . . . . . . . . . . . . . . . . . . . . . . . . . . . . . . ",
". . . . . . . . . . . . . . . . . . . . . . . . . . . . . . . . . "};
