/* XPM */
static char * open_device_xpm[] = {
"33 25 5 1",
" 	c None",
".	c #168224",
"+	c #000000",
"@	c #D8D65B",
"#	c #081975",
"                                 ",
"                                 ",
"              ...........        ",
"              ...........        ",
"              ..+++......@@      ",
"      #       ..+.+...... @      ",
"      ##      ..+.+......@@      ",
"      ###     ..+.+......@@      ",
"      ####    ..+++......@@      ",
"      #####   ...........@@      ",
"############  ...........@@      ",
"############# ...........@@      ",
"##############...........@       ",
"############# ...........@@      ",
"############  .....+++...@@      ",
"      #####   .....+.+...@@      ",
"      ####    .....+.+...@@      ",
"      ###     .....+.+...@@      ",
"      ##      .....+++... @      ",
"      #       ...........@@      ",
"              ...........        ",
"              ...........        ",
"              ...........        ",
"                                 ",
"                                 "};
