/* XPM */
static char * reset_xpm[] = {
"25 25 2 1",
" 	c None",
".	c #081975",
"....                     ",
"....                     ",
"....                   ..",
"....                 ....",
"....                .....",
"....              .......",
"....             ........",
"....           ..........",
"....          ...........",
"....        .............",
"....      ...............",
"....     ................",
"....    .................",
"....     ................",
"....      ...............",
"....        .............",
"....          ...........",
"....           ..........",
"....             ........",
"....               ......",
"....                .....",
"....                  ...",
"....                   ..",
"....                     ",
"....                     "};
