/* XPM */
static char * start_and_draw_xpm[] = {
"33 25 103 2",
"  	c None",
". 	c #000000",
"+ 	c #FFFFFF",
"@ 	c #081975",
"# 	c #353345",
"$ 	c #656164",
"% 	c #B0AEBE",
"& 	c #F5F1F4",
"* 	c #2B272D",
"= 	c #A6A4B2",
"- 	c #282862",
"; 	c #070306",
"> 	c #FDF9FF",
", 	c #AFACB9",
"' 	c #35334F",
") 	c #222253",
"! 	c #C4C0C3",
"~ 	c #696568",
"{ 	c #110D14",
"] 	c #403C46",
"^ 	c #FEFBFF",
"/ 	c #373445",
"( 	c #46425B",
"_ 	c #07062A",
": 	c #6B6B94",
"< 	c #797578",
"[ 	c #878389",
"} 	c #BAB7BE",
"| 	c #F4F0FC",
"1 	c #C4C1CF",
"2 	c #343243",
"3 	c #656177",
"4 	c #000005",
"5 	c #282640",
"6 	c #C2C0DF",
"7 	c #4F494F",
"8 	c #CBC4CB",
"9 	c #99939A",
"0 	c #E9E5ED",
"a 	c #EEEBF4",
"b 	c #FCF9FF",
"c 	c #A5A3B6",
"d 	c #9D9BB1",
"e 	c #6E676E",
"f 	c #251F25",
"g 	c #002E00",
"h 	c #003800",
"i 	c #508E50",
"j 	c #003200",
"k 	c #DBFFDB",
"l 	c #CCFFCF",
"m 	c #ADFFAD",
"n 	c #81D081",
"o 	c #F5FFF5",
"p 	c #A9FFA9",
"q 	c #E0FFE0",
"r 	c #E9FFEC",
"s 	c #EDFFF9",
"t 	c #241F24",
"u 	c #AFABB4",
"v 	c #F0EEF9",
"w 	c #D3D1E3",
"x 	c #201920",
"y 	c #DED7DE",
"z 	c #787480",
"A 	c #0F0D1B",
"B 	c #767489",
"C 	c #FCFDFF",
"D 	c #E4DFE4",
"E 	c #FDF8FD",
"F 	c #F9F5F9",
"G 	c #FCF9FC",
"H 	c #FAF6F9",
"I 	c #55535F",
"J 	c #000009",
"K 	c #75748E",
"L 	c #767788",
"M 	c #6C676C",
"N 	c #140F14",
"O 	c #565356",
"P 	c #C6C2C7",
"Q 	c #EAE7EC",
"R 	c #9995A3",
"S 	c #545263",
"T 	c #000008",
"U 	c #000015",
"V 	c #312E31",
"W 	c #ECE8EB",
"X 	c #848186",
"Y 	c #C1BDC3",
"Z 	c #AEACB7",
"` 	c #6B6877",
" .	c #8C888E",
"..	c #AEABB3",
"+.	c #E8E4EE",
"@.	c #B2B0BD",
"#.	c #171527",
"$.	c #201E22",
"%.	c #95939B",
"&.	c #C7C6D1",
"*.	c #343242",
"=.	c #DAD8E6",
"-.	c #01000D",
". . . . . . . . . . . . . . . . . . . . . . . . . . . . . . . . . ",
". . . . . . + + + . . . . . . . . . . . . . . . . . . . . . . . . ",
". . . . . . + @ @ + + . . . . . . . . . . . . . . # . . . . . . . ",
". . . . . . + @ @ @ @ + . . . . . . . . $ . . . . % . . . . . . . ",
". . . . . . + @ @ @ @ @ + + . . . . . . & . * . . = . . . . . . - ",
". . . . . . + @ @ @ @ @ @ @ + . . . . . + ; > . . , . . ' . . . ) ",
". . . . . . + @ @ @ @ @ @ @ @ + + . . ! + ~ + { ] ^ / . ( . . _ : ",
". . . . . . + @ @ @ @ @ @ @ @ @ @ +     + < + [ } | 1 2 3 4 5 6 + ",
". . 7 8 . . + @ @ @ @ @ @ @ @ @ @ @ + + +   + 9 0 a + b + c d + + ",
". . e + . . + @ @ @ @ @ @ @ @ @ @ @ @ @ + + + +   + + + + + + + + ",
". . + + f . + @ @ @ @ @ @ @ @ @ @ @ @ @ @ @ + +     + + + + + + + ",
"g h + + i j k @ @ @ @ @ @ @ @ @ @ @ @ @ @ @ @ + +   l + + + + + + ",
"+ m n o p q + @ @ @ @ @ @ @ @ @ @ @ @ @ @ @ @ @ + + r + + + s + + ",
"+ + t + + + + @ @ @ @ @ @ @ @ @ @ @ @ @ @ @ @ + + + + + u v . w + ",
"+ + x y + + + @ @ @ @ @ @ @ @ @ @ @ @ @ @ @ + + + + + + z A . B C ",
"+ D . . E + + @ @ @ @ @ @ @ @ @ @ @ @ @ + F G H + + + + I . J K L ",
"M N . . M + + @ @ @ @ @ @ @ @ @ @ @ + + . + O P Q + + R S T . . U ",
". . . . . + + @ @ @ @ @ @ @ @ @ @ + . V . W . X Y + Z ` . . . . . ",
". . . . . . + @ @ @ @ @ @ @ @ + + . . . . . .  ...+.@.#.. . . . . ",
". . . . . . + @ @ @ @ @ @ + + . . . . . . . . $.%.&.*.. . . . . . ",
". . . . . . + @ @ @ @ @ + . . . . . . . . . . . . =.. . . . . . . ",
". . . . . . + @ @ @ + + . . . . . . . . . . . . . -.. . . . . . . ",
". . . . . . + @ @ + . . . . . . . . . . . . . . . . . . . . . . . ",
". . . . . . + + + . . . . . . . . . . . . . . . . . . . . . . . . ",
". . . . . . . . . . . . . . . . . . . . . . . . . . . . . . . . . "};
