/* XPM */
static char * stop_and_dont_draw_xpm[] = {
"33 25 87 1",
" 	c None",
".	c #EF1313",
"+	c #000000",
"@	c #FFFFFF",
"#	c #081975",
"$	c #353345",
"%	c #656164",
"&	c #B0AEBE",
"*	c #F5F1F4",
"=	c #2B272D",
"-	c #A6A4B2",
";	c #282862",
">	c #070306",
",	c #FDF9FF",
"'	c #35334F",
")	c #222253",
"!	c #110D14",
"~	c #373445",
"{	c #46425B",
"]	c #07062A",
"^	c #6B6B94",
"/	c #797578",
"(	c #F4F0FC",
"_	c #C4C1CF",
":	c #343243",
"<	c #656177",
"[	c #000005",
"}	c #282640",
"|	c #C2C0DF",
"1	c #4F494F",
"2	c #CBC4CB",
"3	c #E9E5ED",
"4	c #EEEBF4",
"5	c #FCF9FF",
"6	c #A5A3B6",
"7	c #9D9BB1",
"8	c #6E676E",
"9	c #251F25",
"0	c #002E00",
"a	c #003800",
"b	c #508E50",
"c	c #003200",
"d	c #CCFFCF",
"e	c #ADFFAD",
"f	c #81D081",
"g	c #F5FFF5",
"h	c #A9FFA9",
"i	c #E0FFE0",
"j	c #E9FFEC",
"k	c #EDFFF9",
"l	c #241F24",
"m	c #AFABB4",
"n	c #F0EEF9",
"o	c #D3D1E3",
"p	c #201920",
"q	c #DED7DE",
"r	c #787480",
"s	c #0F0D1B",
"t	c #767489",
"u	c #FCFDFF",
"v	c #E4DFE4",
"w	c #FDF8FD",
"x	c #FCF9FC",
"y	c #FAF6F9",
"z	c #55535F",
"A	c #000009",
"B	c #75748E",
"C	c #767788",
"D	c #6C676C",
"E	c #140F14",
"F	c #C6C2C7",
"G	c #EAE7EC",
"H	c #9995A3",
"I	c #545263",
"J	c #000008",
"K	c #000015",
"L	c #ECE8EB",
"M	c #C1BDC3",
"N	c #AEACB7",
"O	c #6B6877",
"P	c #8C888E",
"Q	c #B2B0BD",
"R	c #171527",
"S	c #201E22",
"T	c #95939B",
"U	c #DAD8E6",
"V	c #01000D",
".++++++++++++++++++++++++++++++++",
"+..+++@@@+++++++++++++++++++++...",
"++..++@##@@++++++++++++++$+++..++",
"+++...@####@++++++++%++++&++..+++",
"+++++..#####@@++++++*+=++-...+++;",
"++++++..######@+++++@>,++..+'+++)",
"++++++@...#####@@+++@+@!..~+{++]^",
"++++++@##..######@++@/...(_:<[}|@",
"++12++@###..######@@ ..@34@5@67@@",
"++8@++@####...######..@  @@@@@@@@",
"++@@9+@######..###...#@@  @@@@@@@",
"0a@@bc@#######..#..####@  d@@@@@@",
"@efghi@########...######@@j@@@k@@",
"@@l@@@@#######..#..####@@@@@mn+o@",
"@@pq@@@######..###..##@@@@@@rs+tu",
"@v++w@@#####..######..xy@@@@z+ABC",
"DE++D@@###..######@@+..FG@@HIJ++K",
"+++++@@##..######@+++L..M@NO+++++",
"++++++@#..#####@@++++++P..QR+++++",
"++++++..#####@@++++++++ST..++++++",
"+++++..#####@++++++++++++U..+++++",
"++++..@###@@+++++++++++++V++..+++",
"++..++@##@+++++++++++++++++++..++",
"+..+++@@@+++++++++++++++++++++..+",
"..+++++++++++++++++++++++++++++++"};
